<svg width="417" height="417" viewBox="0 0 417 417" fill="none" xmlns="http://www.w3.org/2000/svg">
<g clip-path="url(#clip0_29_49)">
<path d="M412 0.5H5C2.51472 0.5 0.5 2.51472 0.5 5V412C0.5 414.485 2.51472 416.5 5 416.5H412C414.485 416.5 416.5 414.485 416.5 412V5C416.5 2.51472 414.485 0.5 412 0.5Z" stroke="#8A38F5" stroke-dasharray="10 5"/>
<path d="M396.5 20.5H20.5V396.5H396.5V20.5Z" stroke="black"/>
<path d="M347 15H70C39.6243 15 15 39.6243 15 70V347C15 377.376 39.6243 402 70 402H347C377.376 402 402 377.376 402 347V70C402 39.6243 377.376 15 347 15Z" fill="#1B4414" stroke="#8DB88D" stroke-width="10"/>
<path d="M304.018 120H112.981C100.831 120 90.9814 129.85 90.9814 142V156C90.9814 168.15 100.831 178 112.981 178H304.018C316.169 178 326.018 168.15 326.018 156V142C326.018 129.85 316.169 120 304.018 120Z" fill="#316234"/>
<path d="M301.018 169H115.981C102.174 169 90.9814 180.193 90.9814 194V273C90.9814 286.807 102.174 298 115.981 298H301.018C314.826 298 326.018 286.807 326.018 273V194C326.018 180.193 314.826 169 301.018 169Z" fill="#457F49"/>
<path d="M296 115H121C104.431 115 91 128.431 91 145V273C91 289.569 104.431 303 121 303H296C312.569 303 326 289.569 326 273V145C326 128.431 312.569 115 296 115Z" stroke="white" stroke-width="10"/>
<path d="M148.71 101.185C148.71 95.5368 144.131 90.9579 138.482 90.9579C132.834 90.9579 128.255 95.5368 128.255 101.185V130.383C128.255 136.032 132.834 140.611 138.482 140.611C144.131 140.611 148.71 136.032 148.71 130.383V101.185Z" fill="white"/>
<path d="M287.958 101.185C287.958 95.5368 283.38 90.9579 277.731 90.9579C272.083 90.9579 267.504 95.5368 267.504 101.185V130.383C267.504 136.032 272.083 140.611 277.731 140.611C283.38 140.611 287.958 136.032 287.958 130.383V101.185Z" fill="white"/>
<path d="M326.018 166H90.9814V178H326.018V166Z" fill="white"/>
<path d="M192 193H170C167.239 193 165 195.239 165 198V220C165 222.761 167.239 225 170 225H192C194.761 225 197 222.761 197 220V198C197 195.239 194.761 193 192 193Z" fill="#316234"/>
<path d="M192 245H170C167.239 245 165 247.239 165 250V272C165 274.761 167.239 277 170 277H192C194.761 277 197 274.761 197 272V250C197 247.239 194.761 245 192 245Z" fill="#316234"/>
<path d="M300 195.5H278C276.619 195.5 275.5 196.619 275.5 198V220C275.5 221.381 276.619 222.5 278 222.5H300C301.381 222.5 302.5 221.381 302.5 220V198C302.5 196.619 301.381 195.5 300 195.5Z" fill="#316234" stroke="white" stroke-width="5"/>
<path d="M138 193H116C113.239 193 111 195.239 111 198V220C111 222.761 113.239 225 116 225H138C140.761 225 143 222.761 143 220V198C143 195.239 140.761 193 138 193Z" fill="#316234"/>
<path d="M138 245H116C113.239 245 111 247.239 111 250V272C111 274.761 113.239 277 116 277H138C140.761 277 143 274.761 143 272V250C143 247.239 140.761 245 138 245Z" fill="#316234"/>
<path d="M246 193H224C221.239 193 219 195.239 219 198V220C219 222.761 221.239 225 224 225H246C248.761 225 251 222.761 251 220V198C251 195.239 248.761 193 246 193Z" fill="#316234"/>
<path d="M246 245H224C221.239 245 219 247.239 219 250V272C219 274.761 221.239 277 224 277H246C248.761 277 251 274.761 251 272V250C251 247.239 248.761 245 246 245Z" fill="#316234"/>
</g>
<defs>
<clipPath id="clip0_29_49">
<rect width="417" height="417" fill="white"/>
</clipPath>
</defs>
</svg>
